<mxfile host="app.diagrams.net" modified="2020-07-06T16:31:44.912Z" agent="5.0 (Windows NT 10.0; Win64; x64) AppleWebKit/537.36 (KHTML, like Gecko) Chrome/83.0.4103.116 Safari/537.36" etag="NbxCrxT4-mFViyoM3s_-" version="13.3.9" type="github">
  <diagram id="cyr7_CDfXnz9qc7WfvMp" name="Page-1">
    <mxGraphModel dx="1422" dy="832" grid="1" gridSize="10" guides="1" tooltips="1" connect="1" arrows="1" fold="1" page="1" pageScale="1" pageWidth="827" pageHeight="1169" math="0" shadow="0">
      <root>
        <mxCell id="0" />
        <mxCell id="1" parent="0" />
        <mxCell id="MPNG4wLm2DRh6l_UH5dd-85" value="" style="endArrow=classic;html=1;" parent="1" edge="1">
          <mxGeometry width="50" height="50" relative="1" as="geometry">
            <mxPoint x="352" y="660" as="sourcePoint" />
            <mxPoint x="210" y="510" as="targetPoint" />
            <Array as="points">
              <mxPoint x="350" y="580" />
              <mxPoint x="210" y="580" />
            </Array>
          </mxGeometry>
        </mxCell>
        <mxCell id="MPNG4wLm2DRh6l_UH5dd-86" value="" style="endArrow=classic;html=1;exitX=0.032;exitY=-0.02;exitDx=0;exitDy=0;exitPerimeter=0;entryX=0.785;entryY=1.009;entryDx=0;entryDy=0;entryPerimeter=0;" parent="1" source="MPNG4wLm2DRh6l_UH5dd-76" target="MPNG4wLm2DRh6l_UH5dd-4" edge="1">
          <mxGeometry width="50" height="50" relative="1" as="geometry">
            <mxPoint x="383" y="630" as="sourcePoint" />
            <mxPoint x="269" y="520" as="targetPoint" />
            <Array as="points">
              <mxPoint x="520" y="610" />
              <mxPoint x="383" y="610" />
              <mxPoint x="381" y="540" />
              <mxPoint x="270" y="540" />
            </Array>
          </mxGeometry>
        </mxCell>
        <mxCell id="MPNG4wLm2DRh6l_UH5dd-26" value="Buchung" style="swimlane;fontStyle=0;childLayout=stackLayout;horizontal=1;startSize=26;fillColor=#d5e8d4;horizontalStack=0;resizeParent=1;resizeParentMax=0;resizeLast=0;collapsible=1;marginBottom=0;strokeColor=#82b366;" parent="1" vertex="1">
          <mxGeometry x="40" y="30" width="140" height="140" as="geometry" />
        </mxCell>
        <mxCell id="MPNG4wLm2DRh6l_UH5dd-27" value="- buchungid: int&#xa;- von: date&#xa;- bis: date&#xa;- kosten: double&#xa;- reisenr: Reise&#xa;- usernr : User" style="text;strokeColor=#82b366;fillColor=#d5e8d4;align=left;verticalAlign=top;spacingLeft=4;spacingRight=4;overflow=hidden;rotatable=0;points=[[0,0.5],[1,0.5]];portConstraint=eastwest;" parent="MPNG4wLm2DRh6l_UH5dd-26" vertex="1">
          <mxGeometry y="26" width="140" height="114" as="geometry" />
        </mxCell>
        <mxCell id="MPNG4wLm2DRh6l_UH5dd-5" value="Reise" style="swimlane;fontStyle=0;childLayout=stackLayout;horizontal=1;startSize=26;fillColor=#d5e8d4;horizontalStack=0;resizeParent=1;resizeParentMax=0;resizeLast=0;collapsible=1;marginBottom=0;strokeColor=#82b366;" parent="1" vertex="1">
          <mxGeometry x="650" y="100" width="140" height="140" as="geometry" />
        </mxCell>
        <mxCell id="MPNG4wLm2DRh6l_UH5dd-7" value="- Reisenr: int&#xa;- preis double&#xa;- Beschreibung: string&#xa;- Ort: string&#xa;- Region: a&#xa;- Land: string&#xa;- Jahreszeit: string" style="text;strokeColor=#82b366;fillColor=#d5e8d4;align=left;verticalAlign=top;spacingLeft=4;spacingRight=4;overflow=hidden;rotatable=0;points=[[0,0.5],[1,0.5]];portConstraint=eastwest;" parent="MPNG4wLm2DRh6l_UH5dd-5" vertex="1">
          <mxGeometry y="26" width="140" height="114" as="geometry" />
        </mxCell>
        <mxCell id="MPNG4wLm2DRh6l_UH5dd-88" value="&amp;lt;&amp;lt;use&amp;gt;&amp;gt;" style="text;html=1;strokeColor=none;fillColor=none;align=center;verticalAlign=middle;whiteSpace=wrap;rounded=0;fontSize=8;" parent="1" vertex="1">
          <mxGeometry x="90" y="630" width="40" height="20" as="geometry" />
        </mxCell>
        <mxCell id="MPNG4wLm2DRh6l_UH5dd-89" value="&amp;lt;&amp;lt;use&amp;gt;&amp;gt;" style="text;html=1;strokeColor=none;fillColor=none;align=center;verticalAlign=middle;whiteSpace=wrap;rounded=0;fontSize=8;" parent="1" vertex="1">
          <mxGeometry x="280" y="520" width="40" height="20" as="geometry" />
        </mxCell>
        <mxCell id="MPNG4wLm2DRh6l_UH5dd-90" value="&amp;lt;&amp;lt;use&amp;gt;&amp;gt;" style="text;html=1;strokeColor=none;fillColor=none;align=center;verticalAlign=middle;whiteSpace=wrap;rounded=0;fontSize=8;rotation=0;" parent="1" vertex="1">
          <mxGeometry x="220" y="560" width="40" height="20" as="geometry" />
        </mxCell>
        <mxCell id="MPNG4wLm2DRh6l_UH5dd-22" value="User" style="swimlane;fontStyle=0;childLayout=stackLayout;horizontal=1;startSize=26;fillColor=#d5e8d4;horizontalStack=0;resizeParent=1;resizeParentMax=0;resizeLast=0;collapsible=1;marginBottom=0;strokeColor=#82b366;" parent="1" vertex="1">
          <mxGeometry x="260" y="30" width="140" height="150" as="geometry" />
        </mxCell>
        <mxCell id="MPNG4wLm2DRh6l_UH5dd-23" value="- usernr: int&#xa;- vorname: string&#xa;- nachname: string&#xa;- password : string&#xa;- kontonr:  int&#xa;- geburtsdat: date&#xa;- rolle: int" style="text;strokeColor=#82b366;fillColor=#d5e8d4;align=left;verticalAlign=top;spacingLeft=4;spacingRight=4;overflow=hidden;rotatable=0;points=[[0,0.5],[1,0.5]];portConstraint=eastwest;" parent="MPNG4wLm2DRh6l_UH5dd-22" vertex="1">
          <mxGeometry y="26" width="140" height="124" as="geometry" />
        </mxCell>
        <mxCell id="MPNG4wLm2DRh6l_UH5dd-76" value="ReiseController" style="swimlane;fontStyle=0;childLayout=stackLayout;horizontal=1;startSize=26;fillColor=#f8cecc;horizontalStack=0;resizeParent=1;resizeParentMax=0;resizeLast=0;collapsible=1;marginBottom=0;strokeColor=#b85450;" parent="1" vertex="1">
          <mxGeometry x="515" y="660" width="200" height="150" as="geometry" />
        </mxCell>
        <mxCell id="MPNG4wLm2DRh6l_UH5dd-77" value="+ ReiseBuchen(Model): String&#xa;+ AppendAktivität(Model): String&#xa;+ AktivitätBewerten(Model): String" style="text;strokeColor=#b85450;fillColor=#f8cecc;align=left;verticalAlign=top;spacingLeft=4;spacingRight=4;overflow=hidden;rotatable=0;points=[[0,0.5],[1,0.5]];portConstraint=eastwest;" parent="MPNG4wLm2DRh6l_UH5dd-76" vertex="1">
          <mxGeometry y="26" width="200" height="124" as="geometry" />
        </mxCell>
        <mxCell id="MPNG4wLm2DRh6l_UH5dd-74" value="AdminController" style="swimlane;fontStyle=0;childLayout=stackLayout;horizontal=1;startSize=26;fillColor=#f8cecc;horizontalStack=0;resizeParent=1;resizeParentMax=0;resizeLast=0;collapsible=1;marginBottom=0;strokeColor=#b85450;" parent="1" vertex="1">
          <mxGeometry x="80" y="660" width="200" height="150" as="geometry" />
        </mxCell>
        <mxCell id="MPNG4wLm2DRh6l_UH5dd-75" value="+ AddReise(Model): String&#xa;+ DeleteReise(Model): String&#xa;+ AddAktivität(Model): String&#xa;+ DeleteAktivität(Model): String&#xa;+ PromoteUser(Model): String" style="text;strokeColor=#b85450;fillColor=#f8cecc;align=left;verticalAlign=top;spacingLeft=4;spacingRight=4;overflow=hidden;rotatable=0;points=[[0,0.5],[1,0.5]];portConstraint=eastwest;" parent="MPNG4wLm2DRh6l_UH5dd-74" vertex="1">
          <mxGeometry y="26" width="200" height="124" as="geometry" />
        </mxCell>
        <mxCell id="MPNG4wLm2DRh6l_UH5dd-69" value="HomeController" style="swimlane;fontStyle=0;childLayout=stackLayout;horizontal=1;startSize=26;fillColor=#f8cecc;horizontalStack=0;resizeParent=1;resizeParentMax=0;resizeLast=0;collapsible=1;marginBottom=0;strokeColor=#b85450;" parent="1" vertex="1">
          <mxGeometry x="310" y="660" width="170" height="150" as="geometry" />
        </mxCell>
        <mxCell id="MPNG4wLm2DRh6l_UH5dd-70" value="+ loginUser(Model): String&#xa;+ register(Model): String&#xa;+ home(Model): String&#xa;+ logout(Model): String&#xa;+ saveUser(Model): String&#xa;+ loginForm(Model): String" style="text;strokeColor=#b85450;fillColor=#f8cecc;align=left;verticalAlign=top;spacingLeft=4;spacingRight=4;overflow=hidden;rotatable=0;points=[[0,0.5],[1,0.5]];portConstraint=eastwest;" parent="MPNG4wLm2DRh6l_UH5dd-69" vertex="1">
          <mxGeometry y="26" width="170" height="124" as="geometry" />
        </mxCell>
        <mxCell id="a3NN4dok4POm4zwGWCXN-23" value="AktivitätzuReise" style="swimlane;fontStyle=0;childLayout=stackLayout;horizontal=1;startSize=26;fillColor=#d5e8d4;horizontalStack=0;resizeParent=1;resizeParentMax=0;resizeLast=0;collapsible=1;marginBottom=0;strokeColor=#82b366;" vertex="1" parent="1">
          <mxGeometry x="500" y="240" width="140" height="140" as="geometry" />
        </mxCell>
        <mxCell id="a3NN4dok4POm4zwGWCXN-24" value="+ MNnr: int&#xa;+ Anr: Aktivität&#xa;+ Reisenr: Reise" style="text;strokeColor=#82b366;fillColor=#d5e8d4;align=left;verticalAlign=top;spacingLeft=4;spacingRight=4;overflow=hidden;rotatable=0;points=[[0,0.5],[1,0.5]];portConstraint=eastwest;" vertex="1" parent="a3NN4dok4POm4zwGWCXN-23">
          <mxGeometry y="26" width="140" height="114" as="geometry" />
        </mxCell>
        <mxCell id="MPNG4wLm2DRh6l_UH5dd-30" value="Urlaubsprofil" style="swimlane;fontStyle=0;childLayout=stackLayout;horizontal=1;startSize=26;fillColor=#d5e8d4;horizontalStack=0;resizeParent=1;resizeParentMax=0;resizeLast=0;collapsible=1;marginBottom=0;strokeColor=#82b366;" parent="1" vertex="1">
          <mxGeometry x="480" y="30" width="140" height="140" as="geometry" />
        </mxCell>
        <mxCell id="MPNG4wLm2DRh6l_UH5dd-31" value="+ ProfilNr: int&#xa;- UserNr: User&#xa;- ReiseNr: Reise&#xa;- name String" style="text;strokeColor=#82b366;fillColor=#d5e8d4;align=left;verticalAlign=top;spacingLeft=4;spacingRight=4;overflow=hidden;rotatable=0;points=[[0,0.5],[1,0.5]];portConstraint=eastwest;" parent="MPNG4wLm2DRh6l_UH5dd-30" vertex="1">
          <mxGeometry y="26" width="140" height="114" as="geometry" />
        </mxCell>
        <mxCell id="MPNG4wLm2DRh6l_UH5dd-1" value="DatabaseManager" style="swimlane;fontStyle=1;align=center;verticalAlign=top;childLayout=stackLayout;horizontal=1;startSize=26;horizontalStack=0;resizeParent=1;resizeParentMax=0;resizeLast=0;collapsible=1;marginBottom=0;fillColor=#d5e8d4;strokeColor=#82b366;" parent="1" vertex="1">
          <mxGeometry x="80" y="230" width="240" height="280" as="geometry" />
        </mxCell>
        <mxCell id="MPNG4wLm2DRh6l_UH5dd-2" value="- sf: SessionFactory" style="text;strokeColor=#82b366;fillColor=#d5e8d4;align=left;verticalAlign=top;spacingLeft=4;spacingRight=4;overflow=hidden;rotatable=0;points=[[0,0.5],[1,0.5]];portConstraint=eastwest;" parent="MPNG4wLm2DRh6l_UH5dd-1" vertex="1">
          <mxGeometry y="26" width="240" height="26" as="geometry" />
        </mxCell>
        <mxCell id="MPNG4wLm2DRh6l_UH5dd-3" value="" style="line;strokeWidth=1;fillColor=#d5e8d4;align=left;verticalAlign=middle;spacingTop=-1;spacingLeft=3;spacingRight=3;rotatable=0;labelPosition=right;points=[];portConstraint=eastwest;strokeColor=#82b366;" parent="MPNG4wLm2DRh6l_UH5dd-1" vertex="1">
          <mxGeometry y="52" width="240" height="8" as="geometry" />
        </mxCell>
        <mxCell id="MPNG4wLm2DRh6l_UH5dd-4" value="+ addReise() : int&#xa;+ addUser(): int&#xa;+ addBuchung(): int&#xa;+ addUrlaubsprofil(): int&#xa;+ addAktivity(): int&#xa;+ addBewertung(): int&#xa;+ addAktivitätzuReisehinzufügen(): int&#xa;+ removeReise() : int&#xa;+ removeUser(): int&#xa;+ removeBuchung(): int&#xa;+ removeUrlaubsprofil(): int&#xa;+ removeAktivity(): int&#xa;+ removeBewertung(): int&#xa;+ removeAktivitätzuReisehinzufügen(): int" style="text;strokeColor=#82b366;fillColor=#d5e8d4;align=left;verticalAlign=top;spacingLeft=4;spacingRight=4;overflow=hidden;rotatable=0;points=[[0,0.5],[1,0.5]];portConstraint=eastwest;" parent="MPNG4wLm2DRh6l_UH5dd-1" vertex="1">
          <mxGeometry y="60" width="240" height="220" as="geometry" />
        </mxCell>
        <mxCell id="MPNG4wLm2DRh6l_UH5dd-38" value="Bewertung" style="swimlane;fontStyle=0;childLayout=stackLayout;horizontal=1;startSize=26;fillColor=#d5e8d4;horizontalStack=0;resizeParent=1;resizeParentMax=0;resizeLast=0;collapsible=1;marginBottom=0;strokeColor=#82b366;" parent="1" vertex="1">
          <mxGeometry x="650" y="460" width="140" height="120" as="geometry" />
        </mxCell>
        <mxCell id="MPNG4wLm2DRh6l_UH5dd-41" value="- Bewertungid: int&#xa;- Usernr: User&#xa;- Aktivität: Aktivität&#xa;- Bewertung: String&#xa;- Note double" style="text;strokeColor=#82b366;fillColor=#d5e8d4;align=left;verticalAlign=top;spacingLeft=4;spacingRight=4;overflow=hidden;rotatable=0;points=[[0,0.5],[1,0.5]];portConstraint=eastwest;" parent="MPNG4wLm2DRh6l_UH5dd-38" vertex="1">
          <mxGeometry y="26" width="140" height="94" as="geometry" />
        </mxCell>
        <mxCell id="MPNG4wLm2DRh6l_UH5dd-34" value="Aktivität" style="swimlane;fontStyle=0;childLayout=stackLayout;horizontal=1;startSize=26;fillColor=#d5e8d4;horizontalStack=0;resizeParent=1;resizeParentMax=0;resizeLast=0;collapsible=1;marginBottom=0;strokeColor=#82b366;" parent="1" vertex="1">
          <mxGeometry x="650" y="340" width="140" height="110" as="geometry" />
        </mxCell>
        <mxCell id="MPNG4wLm2DRh6l_UH5dd-35" value="- Aktivitiätsnr : int&#xa;- Kosten : double&#xa;- Alternativ : Aktivität&#xa;- jahreszeit: String&#xa;- Beschreibung: string" style="text;strokeColor=#82b366;fillColor=#d5e8d4;align=left;verticalAlign=top;spacingLeft=4;spacingRight=4;overflow=hidden;rotatable=0;points=[[0,0.5],[1,0.5]];portConstraint=eastwest;" parent="MPNG4wLm2DRh6l_UH5dd-34" vertex="1">
          <mxGeometry y="26" width="140" height="84" as="geometry" />
        </mxCell>
        <mxCell id="MPNG4wLm2DRh6l_UH5dd-91" value="DatabaseAccessManager" style="swimlane;fontStyle=1;align=center;verticalAlign=top;childLayout=stackLayout;horizontal=1;startSize=26;horizontalStack=0;resizeParent=1;resizeParentMax=0;resizeLast=0;collapsible=1;marginBottom=0;fontSize=12;" parent="1" vertex="1">
          <mxGeometry x="270" y="910" width="200" height="160" as="geometry" />
        </mxCell>
        <mxCell id="MPNG4wLm2DRh6l_UH5dd-92" value="+ sf: SessionFactory" style="text;strokeColor=none;fillColor=none;align=left;verticalAlign=top;spacingLeft=4;spacingRight=4;overflow=hidden;rotatable=0;points=[[0,0.5],[1,0.5]];portConstraint=eastwest;" parent="MPNG4wLm2DRh6l_UH5dd-91" vertex="1">
          <mxGeometry y="26" width="200" height="26" as="geometry" />
        </mxCell>
        <mxCell id="MPNG4wLm2DRh6l_UH5dd-93" value="" style="line;strokeWidth=1;fillColor=none;align=left;verticalAlign=middle;spacingTop=-1;spacingLeft=3;spacingRight=3;rotatable=0;labelPosition=right;points=[];portConstraint=eastwest;" parent="MPNG4wLm2DRh6l_UH5dd-91" vertex="1">
          <mxGeometry y="52" width="200" height="8" as="geometry" />
        </mxCell>
        <mxCell id="MPNG4wLm2DRh6l_UH5dd-94" value="+ UserisAdmin(User): boolean&#xa;+ UserVorhaden(User): boolean&#xa;+ gebuchteReisevonUser(User)&#xa;+ query(String): String&#xa;+ ReiseBewerten(): void&#xa;+ BewertungAnzeigen(): void&#xa;" style="text;strokeColor=none;fillColor=none;align=left;verticalAlign=top;spacingLeft=4;spacingRight=4;overflow=hidden;rotatable=0;points=[[0,0.5],[1,0.5]];portConstraint=eastwest;" parent="MPNG4wLm2DRh6l_UH5dd-91" vertex="1">
          <mxGeometry y="60" width="200" height="100" as="geometry" />
        </mxCell>
        <mxCell id="MPNG4wLm2DRh6l_UH5dd-98" value="&lt;font style=&quot;font-size: 6px&quot;&gt;&amp;lt;&amp;lt;use&amp;gt;&amp;gt;&lt;/font&gt;" style="text;html=1;strokeColor=none;fillColor=none;align=center;verticalAlign=middle;whiteSpace=wrap;rounded=0;fontSize=8;" parent="1" vertex="1">
          <mxGeometry x="787" y="510" width="40" height="20" as="geometry" />
        </mxCell>
        <mxCell id="MPNG4wLm2DRh6l_UH5dd-115" value="" style="endArrow=classic;html=1;fontSize=12;entryX=0;entryY=0;entryDx=0;entryDy=0;" parent="1" source="MPNG4wLm2DRh6l_UH5dd-75" target="MPNG4wLm2DRh6l_UH5dd-91" edge="1">
          <mxGeometry width="50" height="50" relative="1" as="geometry">
            <mxPoint x="90" y="840" as="sourcePoint" />
            <mxPoint x="140" y="790" as="targetPoint" />
            <Array as="points">
              <mxPoint x="180" y="890" />
              <mxPoint x="270" y="890" />
            </Array>
          </mxGeometry>
        </mxCell>
        <mxCell id="MPNG4wLm2DRh6l_UH5dd-116" value="" style="endArrow=classic;html=1;fontSize=12;entryX=0.46;entryY=-0.006;entryDx=0;entryDy=0;entryPerimeter=0;exitX=0.3;exitY=1.024;exitDx=0;exitDy=0;exitPerimeter=0;" parent="1" source="MPNG4wLm2DRh6l_UH5dd-70" target="MPNG4wLm2DRh6l_UH5dd-91" edge="1">
          <mxGeometry width="50" height="50" relative="1" as="geometry">
            <mxPoint x="90" y="840" as="sourcePoint" />
            <mxPoint x="140" y="790" as="targetPoint" />
          </mxGeometry>
        </mxCell>
        <mxCell id="MPNG4wLm2DRh6l_UH5dd-117" value="" style="endArrow=classic;html=1;fontSize=12;entryX=0.75;entryY=0;entryDx=0;entryDy=0;exitX=0.141;exitY=1.016;exitDx=0;exitDy=0;exitPerimeter=0;" parent="1" source="MPNG4wLm2DRh6l_UH5dd-77" target="MPNG4wLm2DRh6l_UH5dd-91" edge="1">
          <mxGeometry width="50" height="50" relative="1" as="geometry">
            <mxPoint x="371" y="822.9760000000001" as="sourcePoint" />
            <mxPoint x="372" y="919.04" as="targetPoint" />
            <Array as="points">
              <mxPoint x="541" y="850" />
              <mxPoint x="420" y="850" />
            </Array>
          </mxGeometry>
        </mxCell>
        <mxCell id="MPNG4wLm2DRh6l_UH5dd-118" value="&amp;lt;&amp;lt;use&amp;gt;&amp;gt;" style="text;html=1;strokeColor=none;fillColor=none;align=center;verticalAlign=middle;whiteSpace=wrap;rounded=0;fontSize=8;" parent="1" vertex="1">
          <mxGeometry x="180" y="870" width="40" height="20" as="geometry" />
        </mxCell>
        <mxCell id="MPNG4wLm2DRh6l_UH5dd-119" value="&amp;lt;&amp;lt;use&amp;gt;&amp;gt;" style="text;html=1;strokeColor=none;fillColor=none;align=center;verticalAlign=middle;whiteSpace=wrap;rounded=0;fontSize=8;" parent="1" vertex="1">
          <mxGeometry x="360" y="890" width="40" height="20" as="geometry" />
        </mxCell>
        <mxCell id="MPNG4wLm2DRh6l_UH5dd-120" value="&amp;lt;&amp;lt;use&amp;gt;&amp;gt;" style="text;html=1;strokeColor=none;fillColor=none;align=center;verticalAlign=middle;whiteSpace=wrap;rounded=0;fontSize=8;" parent="1" vertex="1">
          <mxGeometry x="430" y="850" width="40" height="20" as="geometry" />
        </mxCell>
        <mxCell id="a3NN4dok4POm4zwGWCXN-2" value="&lt;font style=&quot;font-size: 8px&quot;&gt;&amp;lt;&amp;lt;create&amp;gt;&amp;gt;&lt;/font&gt;" style="text;html=1;align=center;verticalAlign=middle;whiteSpace=wrap;rounded=0;rotation=0;" vertex="1" parent="1">
          <mxGeometry x="100" y="170" width="50" height="20" as="geometry" />
        </mxCell>
        <mxCell id="a3NN4dok4POm4zwGWCXN-8" value="" style="endArrow=classic;html=1;fontSize=12;exitX=0.25;exitY=0;exitDx=0;exitDy=0;" edge="1" parent="1" source="MPNG4wLm2DRh6l_UH5dd-74">
          <mxGeometry width="50" height="50" relative="1" as="geometry">
            <mxPoint x="500" y="399.9960000000001" as="sourcePoint" />
            <mxPoint x="130" y="511" as="targetPoint" />
          </mxGeometry>
        </mxCell>
        <mxCell id="a3NN4dok4POm4zwGWCXN-10" value="" style="endArrow=none;html=1;startArrow=none;startFill=0;fillColor=#d5e8d4;exitX=0.779;exitY=1.016;exitDx=0;exitDy=0;exitPerimeter=0;endFill=0;entryX=0;entryY=0.75;entryDx=0;entryDy=0;" edge="1" parent="1" source="MPNG4wLm2DRh6l_UH5dd-23" target="MPNG4wLm2DRh6l_UH5dd-38">
          <mxGeometry width="50" height="50" relative="1" as="geometry">
            <mxPoint x="370" y="170" as="sourcePoint" />
            <mxPoint x="660" y="500" as="targetPoint" />
            <Array as="points">
              <mxPoint x="370" y="280" />
              <mxPoint x="450" y="280" />
              <mxPoint x="450" y="550" />
            </Array>
          </mxGeometry>
        </mxCell>
        <mxCell id="a3NN4dok4POm4zwGWCXN-11" value="1" style="text;html=1;strokeColor=none;fillColor=none;align=center;verticalAlign=middle;whiteSpace=wrap;rounded=0;" vertex="1" parent="1">
          <mxGeometry x="360" y="180" width="40" height="20" as="geometry" />
        </mxCell>
        <mxCell id="a3NN4dok4POm4zwGWCXN-13" value="0..*" style="text;html=1;strokeColor=none;fillColor=none;align=center;verticalAlign=middle;whiteSpace=wrap;rounded=0;" vertex="1" parent="1">
          <mxGeometry x="620" y="530" width="40" height="20" as="geometry" />
        </mxCell>
        <mxCell id="a3NN4dok4POm4zwGWCXN-16" value="" style="endArrow=none;html=1;strokeColor=#000000;exitX=0.5;exitY=1;exitDx=0;exitDy=0;endFill=0;" edge="1" parent="1" source="MPNG4wLm2DRh6l_UH5dd-30">
          <mxGeometry width="50" height="50" relative="1" as="geometry">
            <mxPoint x="520" y="360" as="sourcePoint" />
            <mxPoint x="667" y="190" as="targetPoint" />
            <Array as="points">
              <mxPoint x="550" y="190" />
            </Array>
          </mxGeometry>
        </mxCell>
        <mxCell id="a3NN4dok4POm4zwGWCXN-17" value="0...*" style="text;html=1;strokeColor=none;fillColor=none;align=center;verticalAlign=middle;whiteSpace=wrap;rounded=0;" vertex="1" parent="1">
          <mxGeometry x="550" y="170" width="40" height="20" as="geometry" />
        </mxCell>
        <mxCell id="a3NN4dok4POm4zwGWCXN-18" value="1" style="text;html=1;strokeColor=none;fillColor=none;align=center;verticalAlign=middle;whiteSpace=wrap;rounded=0;" vertex="1" parent="1">
          <mxGeometry x="620" y="170" width="40" height="20" as="geometry" />
        </mxCell>
        <mxCell id="a3NN4dok4POm4zwGWCXN-25" value="" style="endArrow=none;html=1;strokeColor=#000000;exitX=0;exitY=0.737;exitDx=0;exitDy=0;exitPerimeter=0;entryX=0.5;entryY=0;entryDx=0;entryDy=0;endFill=0;" edge="1" parent="1" source="MPNG4wLm2DRh6l_UH5dd-7" target="a3NN4dok4POm4zwGWCXN-23">
          <mxGeometry width="50" height="50" relative="1" as="geometry">
            <mxPoint x="520" y="270" as="sourcePoint" />
            <mxPoint x="570" y="220" as="targetPoint" />
            <Array as="points">
              <mxPoint x="570" y="210" />
            </Array>
          </mxGeometry>
        </mxCell>
        <mxCell id="a3NN4dok4POm4zwGWCXN-26" value="1" style="text;html=1;strokeColor=none;fillColor=none;align=center;verticalAlign=middle;whiteSpace=wrap;rounded=0;" vertex="1" parent="1">
          <mxGeometry x="620" y="210" width="40" height="20" as="geometry" />
        </mxCell>
        <mxCell id="a3NN4dok4POm4zwGWCXN-27" value="0..*" style="text;html=1;strokeColor=none;fillColor=none;align=center;verticalAlign=middle;whiteSpace=wrap;rounded=0;" vertex="1" parent="1">
          <mxGeometry x="570" y="220" width="40" height="20" as="geometry" />
        </mxCell>
        <mxCell id="a3NN4dok4POm4zwGWCXN-28" value="" style="endArrow=none;html=1;strokeColor=#000000;entryX=0;entryY=0.5;entryDx=0;entryDy=0;endFill=0;" edge="1" parent="1" source="a3NN4dok4POm4zwGWCXN-24">
          <mxGeometry width="50" height="50" relative="1" as="geometry">
            <mxPoint x="520" y="440" as="sourcePoint" />
            <mxPoint x="650" y="402.0000000000001" as="targetPoint" />
            <Array as="points">
              <mxPoint x="570" y="402" />
            </Array>
          </mxGeometry>
        </mxCell>
        <mxCell id="a3NN4dok4POm4zwGWCXN-29" value="0..*" style="text;html=1;strokeColor=none;fillColor=none;align=center;verticalAlign=middle;whiteSpace=wrap;rounded=0;" vertex="1" parent="1">
          <mxGeometry x="570" y="380" width="40" height="20" as="geometry" />
        </mxCell>
        <mxCell id="a3NN4dok4POm4zwGWCXN-30" value="1" style="text;html=1;strokeColor=none;fillColor=none;align=center;verticalAlign=middle;whiteSpace=wrap;rounded=0;" vertex="1" parent="1">
          <mxGeometry x="620" y="380" width="40" height="20" as="geometry" />
        </mxCell>
        <mxCell id="a3NN4dok4POm4zwGWCXN-33" value="" style="endArrow=none;html=1;strokeColor=#000000;exitX=0;exitY=0.5;exitDx=0;exitDy=0;entryX=1.009;entryY=0.541;entryDx=0;entryDy=0;entryPerimeter=0;endFill=0;" edge="1" parent="1" source="MPNG4wLm2DRh6l_UH5dd-23" target="MPNG4wLm2DRh6l_UH5dd-27">
          <mxGeometry width="50" height="50" relative="1" as="geometry">
            <mxPoint x="250" y="190" as="sourcePoint" />
            <mxPoint x="300" y="140" as="targetPoint" />
          </mxGeometry>
        </mxCell>
        <mxCell id="a3NN4dok4POm4zwGWCXN-34" value="0..*" style="text;html=1;strokeColor=none;fillColor=none;align=center;verticalAlign=middle;whiteSpace=wrap;rounded=0;" vertex="1" parent="1">
          <mxGeometry x="170" y="95" width="40" height="20" as="geometry" />
        </mxCell>
        <mxCell id="a3NN4dok4POm4zwGWCXN-35" value="1" style="text;html=1;strokeColor=none;fillColor=none;align=center;verticalAlign=middle;whiteSpace=wrap;rounded=0;" vertex="1" parent="1">
          <mxGeometry x="230" y="100" width="40" height="20" as="geometry" />
        </mxCell>
        <mxCell id="a3NN4dok4POm4zwGWCXN-36" value="" style="endArrow=none;html=1;strokeColor=#000000;entryX=0.75;entryY=0;entryDx=0;entryDy=0;exitX=0.643;exitY=0;exitDx=0;exitDy=0;exitPerimeter=0;" edge="1" parent="1" source="MPNG4wLm2DRh6l_UH5dd-5" target="MPNG4wLm2DRh6l_UH5dd-26">
          <mxGeometry width="50" height="50" relative="1" as="geometry">
            <mxPoint x="760" y="60" as="sourcePoint" />
            <mxPoint x="230" y="260" as="targetPoint" />
            <Array as="points">
              <mxPoint x="740" y="10" />
              <mxPoint x="145" y="10" />
            </Array>
          </mxGeometry>
        </mxCell>
        <mxCell id="a3NN4dok4POm4zwGWCXN-37" value="1" style="text;html=1;strokeColor=none;fillColor=none;align=center;verticalAlign=middle;whiteSpace=wrap;rounded=0;" vertex="1" parent="1">
          <mxGeometry x="710" y="80" width="40" height="20" as="geometry" />
        </mxCell>
        <mxCell id="a3NN4dok4POm4zwGWCXN-38" value="0..*" style="text;html=1;strokeColor=none;fillColor=none;align=center;verticalAlign=middle;whiteSpace=wrap;rounded=0;" vertex="1" parent="1">
          <mxGeometry x="110" y="10" width="40" height="20" as="geometry" />
        </mxCell>
        <mxCell id="a3NN4dok4POm4zwGWCXN-39" value="" style="endArrow=none;html=1;strokeColor=#000000;entryX=0;entryY=0.5;entryDx=0;entryDy=0;" edge="1" parent="1" target="MPNG4wLm2DRh6l_UH5dd-31">
          <mxGeometry width="50" height="50" relative="1" as="geometry">
            <mxPoint x="401" y="113" as="sourcePoint" />
            <mxPoint x="600" y="200" as="targetPoint" />
          </mxGeometry>
        </mxCell>
        <mxCell id="a3NN4dok4POm4zwGWCXN-40" value="1" style="text;html=1;strokeColor=none;fillColor=none;align=center;verticalAlign=middle;whiteSpace=wrap;rounded=0;" vertex="1" parent="1">
          <mxGeometry x="390" y="95" width="40" height="20" as="geometry" />
        </mxCell>
        <mxCell id="a3NN4dok4POm4zwGWCXN-41" value="0..*" style="text;html=1;strokeColor=none;fillColor=none;align=center;verticalAlign=middle;whiteSpace=wrap;rounded=0;" vertex="1" parent="1">
          <mxGeometry x="450" y="95" width="40" height="20" as="geometry" />
        </mxCell>
        <mxCell id="a3NN4dok4POm4zwGWCXN-42" value="" style="endArrow=none;html=1;strokeColor=#000000;exitX=0.004;exitY=0.144;exitDx=0;exitDy=0;exitPerimeter=0;entryX=0.004;entryY=0.714;entryDx=0;entryDy=0;entryPerimeter=0;" edge="1" parent="1" source="MPNG4wLm2DRh6l_UH5dd-41">
          <mxGeometry width="50" height="50" relative="1" as="geometry">
            <mxPoint x="590" y="360" as="sourcePoint" />
            <mxPoint x="650.56" y="419.9760000000001" as="targetPoint" />
            <Array as="points">
              <mxPoint x="600" y="500" />
              <mxPoint x="600" y="420" />
            </Array>
          </mxGeometry>
        </mxCell>
        <mxCell id="a3NN4dok4POm4zwGWCXN-43" value="0..*" style="text;html=1;strokeColor=none;fillColor=none;align=center;verticalAlign=middle;whiteSpace=wrap;rounded=0;" vertex="1" parent="1">
          <mxGeometry x="620" y="480" width="40" height="20" as="geometry" />
        </mxCell>
        <mxCell id="a3NN4dok4POm4zwGWCXN-44" value="1" style="text;html=1;strokeColor=none;fillColor=none;align=center;verticalAlign=middle;whiteSpace=wrap;rounded=0;" vertex="1" parent="1">
          <mxGeometry x="620" y="420" width="40" height="20" as="geometry" />
        </mxCell>
        <mxCell id="a3NN4dok4POm4zwGWCXN-46" value="" style="endArrow=none;dashed=1;html=1;strokeColor=#82b366;fillColor=#d5e8d4;startArrow=openThin;startFill=0;entryX=0.292;entryY=0;entryDx=0;entryDy=0;entryPerimeter=0;exitX=0.786;exitY=1;exitDx=0;exitDy=0;exitPerimeter=0;" edge="1" parent="1" source="MPNG4wLm2DRh6l_UH5dd-27" target="MPNG4wLm2DRh6l_UH5dd-1">
          <mxGeometry width="50" height="50" relative="1" as="geometry">
            <mxPoint x="-80" y="360" as="sourcePoint" />
            <mxPoint x="-30" y="310" as="targetPoint" />
          </mxGeometry>
        </mxCell>
        <mxCell id="a3NN4dok4POm4zwGWCXN-48" value="" style="endArrow=none;dashed=1;html=1;strokeColor=#82b366;fillColor=#d5e8d4;startArrow=openThin;startFill=0;exitX=0.786;exitY=1;exitDx=0;exitDy=0;exitPerimeter=0;entryX=0.955;entryY=-0.002;entryDx=0;entryDy=0;entryPerimeter=0;" edge="1" parent="1" target="MPNG4wLm2DRh6l_UH5dd-1">
          <mxGeometry width="50" height="50" relative="1" as="geometry">
            <mxPoint x="310" y="180" as="sourcePoint" />
            <mxPoint x="310.0400000000002" y="210" as="targetPoint" />
          </mxGeometry>
        </mxCell>
        <mxCell id="a3NN4dok4POm4zwGWCXN-54" value="&lt;font style=&quot;font-size: 8px&quot;&gt;&amp;lt;&amp;lt;create&amp;gt;&amp;gt;&lt;/font&gt;" style="text;html=1;align=center;verticalAlign=middle;whiteSpace=wrap;rounded=0;rotation=0;" vertex="1" parent="1">
          <mxGeometry x="260" y="210" width="50" height="20" as="geometry" />
        </mxCell>
        <mxCell id="a3NN4dok4POm4zwGWCXN-55" value="" style="endArrow=none;dashed=1;html=1;strokeColor=#82b366;fillColor=#d5e8d4;startArrow=openThin;startFill=0;exitX=0;exitY=1;exitDx=0;exitDy=0;entryX=0.955;entryY=-0.002;entryDx=0;entryDy=0;entryPerimeter=0;" edge="1" parent="1" source="MPNG4wLm2DRh6l_UH5dd-30">
          <mxGeometry width="50" height="50" relative="1" as="geometry">
            <mxPoint x="320" y="190" as="sourcePoint" />
            <mxPoint x="319.20000000000005" y="239.43999999999994" as="targetPoint" />
            <Array as="points">
              <mxPoint x="420" y="170" />
              <mxPoint x="420" y="239" />
            </Array>
          </mxGeometry>
        </mxCell>
        <mxCell id="a3NN4dok4POm4zwGWCXN-56" value="&lt;font style=&quot;font-size: 8px&quot;&gt;&amp;lt;&amp;lt;create&amp;gt;&amp;gt;&lt;/font&gt;" style="text;html=1;align=center;verticalAlign=middle;whiteSpace=wrap;rounded=0;rotation=0;" vertex="1" parent="1">
          <mxGeometry x="413.5" y="150" width="50" height="20" as="geometry" />
        </mxCell>
        <mxCell id="a3NN4dok4POm4zwGWCXN-57" value="" style="endArrow=none;dashed=1;html=1;strokeColor=#82b366;fillColor=#d5e8d4;startArrow=openThin;startFill=0;exitX=-0.024;exitY=0.272;exitDx=0;exitDy=0;exitPerimeter=0;entryX=1;entryY=0.25;entryDx=0;entryDy=0;" edge="1" parent="1" source="a3NN4dok4POm4zwGWCXN-24" target="MPNG4wLm2DRh6l_UH5dd-1">
          <mxGeometry width="50" height="50" relative="1" as="geometry">
            <mxPoint x="320" y="190" as="sourcePoint" />
            <mxPoint x="319.20000000000005" y="239.43999999999994" as="targetPoint" />
          </mxGeometry>
        </mxCell>
        <mxCell id="a3NN4dok4POm4zwGWCXN-58" value="&lt;font style=&quot;font-size: 8px&quot;&gt;&amp;lt;&amp;lt;create&amp;gt;&amp;gt;&lt;/font&gt;" style="text;html=1;align=center;verticalAlign=middle;whiteSpace=wrap;rounded=0;rotation=0;" vertex="1" parent="1">
          <mxGeometry x="355" y="300" width="50" height="20" as="geometry" />
        </mxCell>
        <mxCell id="a3NN4dok4POm4zwGWCXN-60" value="" style="endArrow=none;dashed=1;html=1;strokeColor=#82b366;fillColor=#d5e8d4;startArrow=openThin;startFill=0;entryX=1.01;entryY=0.729;entryDx=0;entryDy=0;entryPerimeter=0;exitX=0;exitY=0.595;exitDx=0;exitDy=0;exitPerimeter=0;" edge="1" parent="1" target="MPNG4wLm2DRh6l_UH5dd-4">
          <mxGeometry width="50" height="50" relative="1" as="geometry">
            <mxPoint x="650" y="409.98" as="sourcePoint" />
            <mxPoint x="399.1700000000001" y="414.7199999999999" as="targetPoint" />
            <Array as="points">
              <mxPoint x="560" y="410" />
              <mxPoint x="560" y="450" />
            </Array>
          </mxGeometry>
        </mxCell>
        <mxCell id="a3NN4dok4POm4zwGWCXN-61" value="&lt;font style=&quot;font-size: 8px&quot;&gt;&amp;lt;&amp;lt;create&amp;gt;&amp;gt;&lt;/font&gt;" style="text;html=1;align=center;verticalAlign=middle;whiteSpace=wrap;rounded=0;rotation=0;" vertex="1" parent="1">
          <mxGeometry x="515" y="400" width="50" height="20" as="geometry" />
        </mxCell>
        <mxCell id="a3NN4dok4POm4zwGWCXN-62" value="" style="endArrow=none;dashed=1;html=1;strokeColor=#82b366;fillColor=#d5e8d4;startArrow=openThin;startFill=0;exitX=0;exitY=0.093;exitDx=0;exitDy=0;exitPerimeter=0;" edge="1" parent="1" source="MPNG4wLm2DRh6l_UH5dd-38">
          <mxGeometry width="50" height="50" relative="1" as="geometry">
            <mxPoint x="420.8" y="470.56" as="sourcePoint" />
            <mxPoint x="560" y="450" as="targetPoint" />
            <Array as="points">
              <mxPoint x="560" y="471" />
            </Array>
          </mxGeometry>
        </mxCell>
        <mxCell id="a3NN4dok4POm4zwGWCXN-63" value="&lt;font style=&quot;font-size: 8px&quot;&gt;&amp;lt;&amp;lt;create&amp;gt;&amp;gt;&lt;/font&gt;" style="text;html=1;align=center;verticalAlign=middle;whiteSpace=wrap;rounded=0;rotation=0;" vertex="1" parent="1">
          <mxGeometry x="550" y="470" width="50" height="20" as="geometry" />
        </mxCell>
        <mxCell id="a3NN4dok4POm4zwGWCXN-64" value="" style="endArrow=none;dashed=1;html=1;strokeColor=#82b366;fillColor=#d5e8d4;startArrow=openThin;startFill=0;exitX=0;exitY=0.615;exitDx=0;exitDy=0;exitPerimeter=0;entryX=1;entryY=0.5;entryDx=0;entryDy=0;" edge="1" parent="1" source="MPNG4wLm2DRh6l_UH5dd-7" target="MPNG4wLm2DRh6l_UH5dd-2">
          <mxGeometry width="50" height="50" relative="1" as="geometry">
            <mxPoint x="320" y="190" as="sourcePoint" />
            <mxPoint x="319.20000000000005" y="239.43999999999994" as="targetPoint" />
            <Array as="points">
              <mxPoint x="450" y="196" />
              <mxPoint x="450" y="269" />
            </Array>
          </mxGeometry>
        </mxCell>
        <mxCell id="a3NN4dok4POm4zwGWCXN-67" value="&lt;font style=&quot;font-size: 8px&quot;&gt;&amp;lt;&amp;lt;create&amp;gt;&amp;gt;&lt;/font&gt;" style="text;html=1;align=center;verticalAlign=middle;whiteSpace=wrap;rounded=0;rotation=0;" vertex="1" parent="1">
          <mxGeometry x="520" y="190" width="50" height="20" as="geometry" />
        </mxCell>
        <mxCell id="a3NN4dok4POm4zwGWCXN-69" value="" style="endArrow=none;dashed=1;html=1;strokeColor=#000000;exitX=1.017;exitY=0.278;exitDx=0;exitDy=0;exitPerimeter=0;" edge="1" parent="1" source="MPNG4wLm2DRh6l_UH5dd-94">
          <mxGeometry width="50" height="50" relative="1" as="geometry">
            <mxPoint x="720" y="1000" as="sourcePoint" />
            <mxPoint x="820" y="40" as="targetPoint" />
            <Array as="points">
              <mxPoint x="820" y="998" />
            </Array>
          </mxGeometry>
        </mxCell>
        <mxCell id="a3NN4dok4POm4zwGWCXN-70" value="" style="endArrow=none;dashed=1;html=1;strokeColor=#000000;startArrow=openThin;startFill=0;" edge="1" parent="1">
          <mxGeometry width="50" height="50" relative="1" as="geometry">
            <mxPoint x="790" y="530" as="sourcePoint" />
            <mxPoint x="820" y="530" as="targetPoint" />
          </mxGeometry>
        </mxCell>
        <mxCell id="a3NN4dok4POm4zwGWCXN-71" value="" style="endArrow=none;dashed=1;html=1;strokeColor=#000000;startArrow=openThin;startFill=0;" edge="1" parent="1">
          <mxGeometry width="50" height="50" relative="1" as="geometry">
            <mxPoint x="790" y="409.8" as="sourcePoint" />
            <mxPoint x="820" y="409.8" as="targetPoint" />
          </mxGeometry>
        </mxCell>
        <mxCell id="a3NN4dok4POm4zwGWCXN-72" value="&lt;font style=&quot;font-size: 6px&quot;&gt;&amp;lt;&amp;lt;use&amp;gt;&amp;gt;&lt;/font&gt;" style="text;html=1;strokeColor=none;fillColor=none;align=center;verticalAlign=middle;whiteSpace=wrap;rounded=0;fontSize=8;" vertex="1" parent="1">
          <mxGeometry x="787" y="390" width="40" height="20" as="geometry" />
        </mxCell>
        <mxCell id="a3NN4dok4POm4zwGWCXN-73" value="" style="endArrow=none;dashed=1;html=1;strokeColor=#000000;startArrow=openThin;startFill=0;" edge="1" parent="1">
          <mxGeometry width="50" height="50" relative="1" as="geometry">
            <mxPoint x="640" y="290" as="sourcePoint" />
            <mxPoint x="820" y="290" as="targetPoint" />
          </mxGeometry>
        </mxCell>
        <mxCell id="a3NN4dok4POm4zwGWCXN-74" value="&lt;font style=&quot;font-size: 6px&quot;&gt;&amp;lt;&amp;lt;use&amp;gt;&amp;gt;&lt;/font&gt;" style="text;html=1;strokeColor=none;fillColor=none;align=center;verticalAlign=middle;whiteSpace=wrap;rounded=0;fontSize=8;" vertex="1" parent="1">
          <mxGeometry x="650" y="270" width="40" height="20" as="geometry" />
        </mxCell>
        <mxCell id="a3NN4dok4POm4zwGWCXN-75" value="" style="endArrow=none;dashed=1;html=1;strokeColor=#000000;startArrow=openThin;startFill=0;" edge="1" parent="1">
          <mxGeometry width="50" height="50" relative="1" as="geometry">
            <mxPoint x="790" y="170" as="sourcePoint" />
            <mxPoint x="820" y="170" as="targetPoint" />
          </mxGeometry>
        </mxCell>
        <mxCell id="a3NN4dok4POm4zwGWCXN-76" value="&lt;font style=&quot;font-size: 6px&quot;&gt;&amp;lt;&amp;lt;use&amp;gt;&amp;gt;&lt;/font&gt;" style="text;html=1;strokeColor=none;fillColor=none;align=center;verticalAlign=middle;whiteSpace=wrap;rounded=0;fontSize=8;" vertex="1" parent="1">
          <mxGeometry x="787" y="150" width="40" height="20" as="geometry" />
        </mxCell>
        <mxCell id="a3NN4dok4POm4zwGWCXN-78" value="" style="endArrow=none;dashed=1;html=1;strokeColor=#000000;startArrow=openThin;startFill=0;exitX=1;exitY=0.071;exitDx=0;exitDy=0;exitPerimeter=0;" edge="1" parent="1" source="MPNG4wLm2DRh6l_UH5dd-30">
          <mxGeometry width="50" height="50" relative="1" as="geometry">
            <mxPoint x="787" y="40" as="sourcePoint" />
            <mxPoint x="820" y="40" as="targetPoint" />
          </mxGeometry>
        </mxCell>
        <mxCell id="a3NN4dok4POm4zwGWCXN-79" value="&lt;font style=&quot;font-size: 6px&quot;&gt;&amp;lt;&amp;lt;use&amp;gt;&amp;gt;&lt;/font&gt;" style="text;html=1;strokeColor=none;fillColor=none;align=center;verticalAlign=middle;whiteSpace=wrap;rounded=0;fontSize=8;" vertex="1" parent="1">
          <mxGeometry x="620" y="40" width="40" height="20" as="geometry" />
        </mxCell>
        <mxCell id="a3NN4dok4POm4zwGWCXN-80" value="" style="endArrow=none;dashed=1;html=1;strokeColor=#000000;entryX=0;entryY=0.3;entryDx=0;entryDy=0;entryPerimeter=0;exitX=0;exitY=0;exitDx=0;exitDy=0;" edge="1" parent="1" source="a3NN4dok4POm4zwGWCXN-82" target="MPNG4wLm2DRh6l_UH5dd-94">
          <mxGeometry width="50" height="50" relative="1" as="geometry">
            <mxPoint x="10" y="10" as="sourcePoint" />
            <mxPoint x="150" y="1000" as="targetPoint" />
            <Array as="points">
              <mxPoint x="10" y="1000" />
            </Array>
          </mxGeometry>
        </mxCell>
        <mxCell id="a3NN4dok4POm4zwGWCXN-81" value="" style="endArrow=openThin;dashed=1;html=1;strokeColor=#000000;entryX=-0.006;entryY=0.388;entryDx=0;entryDy=0;entryPerimeter=0;endFill=0;" edge="1" parent="1" target="MPNG4wLm2DRh6l_UH5dd-27">
          <mxGeometry width="50" height="50" relative="1" as="geometry">
            <mxPoint x="10" y="100" as="sourcePoint" />
            <mxPoint x="290" y="170" as="targetPoint" />
          </mxGeometry>
        </mxCell>
        <mxCell id="a3NN4dok4POm4zwGWCXN-82" value="&lt;font style=&quot;font-size: 6px&quot;&gt;&amp;lt;&amp;lt;use&amp;gt;&amp;gt;&lt;/font&gt;" style="text;html=1;strokeColor=none;fillColor=none;align=center;verticalAlign=middle;whiteSpace=wrap;rounded=0;fontSize=8;" vertex="1" parent="1">
          <mxGeometry x="10" y="100" width="40" height="20" as="geometry" />
        </mxCell>
        <mxCell id="a3NN4dok4POm4zwGWCXN-83" value="" style="endArrow=openThin;dashed=1;html=1;strokeColor=#000000;endFill=0;entryX=0;entryY=0.839;entryDx=0;entryDy=0;entryPerimeter=0;" edge="1" parent="1" target="MPNG4wLm2DRh6l_UH5dd-23">
          <mxGeometry width="50" height="50" relative="1" as="geometry">
            <mxPoint x="11" y="199.71" as="sourcePoint" />
            <mxPoint x="90" y="199.71" as="targetPoint" />
            <Array as="points">
              <mxPoint x="220" y="200" />
              <mxPoint x="220" y="160" />
            </Array>
          </mxGeometry>
        </mxCell>
        <mxCell id="a3NN4dok4POm4zwGWCXN-84" value="&lt;font style=&quot;font-size: 6px&quot;&gt;&amp;lt;&amp;lt;use&amp;gt;&amp;gt;&lt;/font&gt;" style="text;html=1;strokeColor=none;fillColor=none;align=center;verticalAlign=middle;whiteSpace=wrap;rounded=0;fontSize=8;" vertex="1" parent="1">
          <mxGeometry x="220" y="160" width="40" height="20" as="geometry" />
        </mxCell>
      </root>
    </mxGraphModel>
  </diagram>
</mxfile>
